PathFileType	4	(X/Y/Z)	\\move.snu.ac.kr\motion\Animal\091204_091205_Bird\091205_bird\Project 2\Capture day 2\Session 1\pigeon_016_14markers.trc
DataRate	CameraRate	NumFrames	NumMarkers	Units	OrigDataRate	OrigDataStartFrame	OrigNumFrames
240.0	240.0	8	14	mm	240.0	140	2171
Frame#	Time	20MarkersBird:Head			20MarkersBird:C_back			20MarkersBird:L-back			20MarkersBird:R-back			20MarkersBird:Spine			20MarkersBird:L-shoulder			20MarkersBird:L-elbow			20MarkersBird:L-wrist			20MarkersBird:L-hand			20MarkersBird:L-wing1			20MarkersBird:L-wing10			20MarkersBird:R-shoulder			20MarkersBird:R-elbow			20MarkersBird:R-Wrist			20MarkersBird:R-hand			20MarkersBird:R-wing1			20MarkersBird:R-wing10			20MarkersBird:C_Tail			20MarkersBird:L-Tale			20MarkersBird:R-Tale			
		X1	Y1	Z1	X2	Y2	Z2	X3	Y3	Z3	X4	Y4	Z4	X5	Y5	Z5	X6	Y6	Z6	X7	Y7	Z7	X8	Y8	Z8	X9	Y9	Z9	X10	Y10	Z10	X11	Y11	Z11	X12	Y12	Z12	X13	Y13	Z13	X14	Y14	Z14	X15	Y15	Z15	X16	Y16	Z16	X17	Y17	Z17	X18	Y18	Z18	X19	Y19	Z19	X20	Y20	Z20	

1200	4.996	-1403.89709	1402.07471	230.00273	-1414.32788	1409.39282	284.50717							-1425.30579	1406.79089	338.31369	-1430.80066	1400.61304	251.65430	-1460.14868	1393.46619	274.76068	-1450.54272	1383.51880	230.33369	-1440.07190	1364.16260	214.72250							-1385.81396	1391.62329	261.10065	-1369.33264	1382.17419	284.75238	-1371.04810	1371.14832	245.79205	-1376.78784	1341.35107	220.10216							-1468.71057	1347.85168	440.49200	-1526.39124	1375.77991	362.66418	-1361.76392	1342.47034	413.73108	
1201	5.000	-1401.03003	1398.47473	218.45729	-1411.88489	1407.00525	272.88293							-1423.12939	1404.74719	326.67734	-1428.54810	1398.04602	240.28244	-1458.95471	1396.10901	265.70282	-1452.73059	1389.68298	221.76308	-1443.79822	1369.95288	205.57101							-1383.54089	1389.33228	250.30292	-1366.77429	1385.29724	279.62311	-1362.93140	1376.62219	238.96530	-1367.91992	1345.17395	214.42307							-1465.89966	1345.55884	428.98486	-1524.23071	1373.46875	350.91104	-1360.62427	1339.19556	402.00333	
1202	5.004	-1398.43323	1394.81750	206.56207	-1409.23755	1404.19666	260.66147							-1421.07275	1402.67126	314.99344	-1426.40601	1395.17407	229.07637	-1456.09802	1401.16089	258.20691	-1454.34058	1396.69482	212.11140	-1450.40063	1374.04749	196.67075							-1381.13635	1386.62610	239.41087	-1365.33777	1389.90369	273.43576	-1354.28003	1381.93860	232.03270	-1356.61938	1346.54614	211.68381							-1463.50464	1342.25610	417.19800	-1522.33679	1371.84265	338.65472	-1358.72913	1335.53650	389.37247	
1203	5.008	-1395.35388	1391.47644	195.13321	-1406.77234	1400.84033	249.27441							-1419.02588	1400.23108	303.56564	-1424.07068	1391.92090	218.53772	-1449.94580	1404.96436	249.11749	-1455.40515	1404.02356	203.27904	-1460.38489	1377.50745	192.06294							-1378.78259	1384.17188	228.59128	-1366.39807	1395.55310	264.95364	-1346.43811	1387.50439	225.98607	-1342.64563	1348.57886	213.10033							-1461.69629	1337.82373	404.97137	-1520.72473	1371.03906	325.88730	-1355.96338	1331.54370	376.85104	
1204	5.012	-1392.77246	1388.38489	183.88969	-1403.62891	1397.83850	237.09950							-1416.94360	1397.26038	291.92450	-1421.01965	1389.31897	207.08125	-1442.23279	1407.89758	240.46408	-1455.61438	1412.01233	197.88651	-1469.74280	1385.61499	190.29201							-1376.97314	1382.84045	217.59248	-1368.91614	1401.20520	255.10611	-1340.01489	1394.93298	219.86105	-1330.48987	1354.53906	216.43909							-1459.92700	1332.52319	391.78931	-1519.17017	1370.37988	312.24768	-1351.93652	1330.14050	364.13773	
1205	5.017	-1390.05981	1385.00684	172.71869	-1401.48242	1394.27063	226.30710							-1414.92273	1394.24438	280.12305	-1417.78711	1386.99524	195.27594	-1433.36816	1409.17041	231.25209	-1451.11877	1418.73291	191.70847	-1474.38025	1396.38354	193.65488							-1375.62927	1381.98242	206.14337	-1371.66821	1403.59058	241.60693	-1337.38342	1402.70276	213.09755	-1319.86743	1364.81885	220.49084							-1458.63489	1328.18213	379.28336	-1517.73938	1370.06885	298.17239	-1347.61292	1329.43762	351.57263	
1206	5.021	-1387.09717	1382.22717	161.55606	-1398.96216	1391.53345	214.75980							-1413.24536	1391.18311	268.87674	-1414.53723	1384.72668	183.32288	-1424.54260	1408.36707	221.84326	-1443.90259	1423.48828	184.44403	-1471.58350	1409.95264	195.07280							-1374.41479	1380.85059	194.79936	-1376.09326	1405.35901	228.17023	-1338.46912	1407.55237	206.78999	-1312.97815	1380.02039	225.34131							-1457.90491	1324.16748	367.05435	-1516.16809	1369.81299	283.98520	-1342.28394	1330.90454	339.33395	
1207	5.025	-1384.10046	1378.74121	150.53758	-1395.77380	1389.23779	201.86584							-1411.22485	1387.28882	257.45804	-1411.49878	1382.12439	171.92514	-1416.60608	1406.35315	211.03180	-1436.09241	1426.39221	177.66037	-1465.01685	1422.59143	193.59235							-1373.04370	1378.79688	183.53781	-1378.49670	1401.44299	212.84238	-1340.28894	1412.28638	198.00685	-1311.83545	1398.70935	225.92747							-1457.44397	1320.32202	354.62848	-1514.52136	1369.75012	269.89688	-1337.36987	1331.68054	327.40964	
